# xmcd
#
# Track frame offsets: 
#        150
#        17233
#        33095
#        42248
#        57178
#        75308
#        93610
#        110480
#        129200
#        150070
#        167808
#        186793
#        211105
#        230045
#        256020
#
# Disc length: 3729 seconds
#
# Revision: 3
# Processed by: cddbd v1.5.2PL0 Copyright (c) Steve Scherf et al.
# Submitted via: ExactAudioCopy v1.0b1
#
DISCID=ad0e8f0f
DTITLE=Various Artist - BMG Collection Vol. 2 Disc 1
DYEAR=1991
DGENRE=Country
TTITLE0=Alabama - Then Again
TTITLE1=Judds - John Deere Tractor
TTITLE2=Roy Rogers And Clint Black - Hold On Partner
TTITLE3=Earl Thomas Conley And Keith - Brotherly Love
TTITLE4=Eddie London - Uninvited Memory
TTITLE5=Pc Quest - After The Summers Gone
TTITLE6=This Picture - Naked Rain
TTITLE7=Tami Show - The Truth
TTITLE8=Kik Tracee - You're So Strange
TTITLE9=Gene Rice - You're A Victim
TTITLE10=Warren Hill - Maybe Tommorow
TTITLE11=Al Green - Leave The Guns At Home
TTITLE12=James - From A Distance Wind Beneath My Wings
TTITLE13=Jackson Browne - The Rebal Jesus Jig
TTITLE14=Slammin' Amadeus - Dance Remix
EXTD=
EXTT0=
EXTT1=
EXTT2=
EXTT3=Whitley
EXTT4=
EXTT5=
EXTT6=
EXTT7=
EXTT8=
EXTT9=
EXTT10=
EXTT11=
EXTT12=Galway
EXTT13=
EXTT14=
PLAYORDER=
